<?xml version="1.0" encoding="UTF-8" standalone="no"?>
<svg
   width="16"
   height="16"
   version="1.1"
   id="svg1"
   sodipodi:docname="coffe-dark.svg"
   inkscape:version="1.4.4 (dcaf3e7d9e, 2026-05-05)"
   xmlns:inkscape="http://www.inkscape.org/namespaces/inkscape"
   xmlns:sodipodi="http://sodipodi.sourceforge.net/DTD/sodipodi-0.dtd"
   xmlns="http://www.w3.org/2000/svg"
   xmlns:svg="http://www.w3.org/2000/svg">
  <sodipodi:namedview
     id="namedview1"
     pagecolor="#ffffff"
     bordercolor="#999999"
     borderopacity="1"
     inkscape:showpageshadow="2"
     inkscape:pageopacity="0"
     inkscape:pagecheckerboard="0"
     inkscape:deskcolor="#d1d1d1"
     inkscape:zoom="52.4375"
     inkscape:cx="8"
     inkscape:cy="8"
     inkscape:window-width="1920"
     inkscape:window-height="1040"
     inkscape:window-x="0"
     inkscape:window-y="0"
     inkscape:window-maximized="1"
     inkscape:current-layer="svg1" />
  <defs
     id="defs1">
    <style
       id="current-color-scheme"
       type="text/css">.ColorScheme-Text { color:#282828; } .ColorScheme-Highlight { color:#458588; } .ColorScheme-NeutralText { color:#fe8019; } .ColorScheme-PositiveText { color:#689d6a; } .ColorScheme-NegativeText { color:#fb4934; }</style>
  </defs>
  <path
     class="ColorScheme-Text"
     d="m4.211 1c-1.098 1.38-1.427 1.569-1.031 2.449 0.3591 0.8 1.287 0.7006 0.8203 2.551 0.7664-0.9 1.375-1.541 0.7734-2.461-0.6122-0.94-0.9475-1.009-0.5625-2.539zm3 0c-0.668 0.8395-1.051 1.237-1.16 1.619-0.06996 0.2457-0.02618 0.4854 0.1289 0.8301 0.3591 0.8 1.287 0.7006 0.8203 2.551 0.7666-0.9 1.375-1.541 0.7734-2.461-0.612-0.94-0.9471-1.009-0.5625-2.539zm3 0c-1.098 1.38-1.427 1.569-1.031 2.449 0.359 0.8 1.287 0.7006 0.8203 2.551 0.767-0.9 1.375-1.541 0.7734-2.461-0.612-0.94-0.9475-1.009-0.5625-2.539zm-9.211 6c0 5 2.38e-5 8 6 8 2.984 0 4.482-0.7428 5.236-2.104 1.743 0.4702 3.764-0.7883 3.764-2.896 0-1.657-1.343-3-3-3zm11.98 2.002c0.2873-0.03158 1.02 0.2383 1.02 0.998 0 0.6896-0.6439 1.087-1.17 0.9805 0.09028-0.5991 0.1307-1.262 0.1504-1.979z"
     fill="currentColor"
     id="path1"
     style="fill:#f2f2f2;fill-opacity:1" />
</svg>
