<?xml version="1.0" encoding="UTF-8" standalone="no"?>
<svg
   width="16"
   height="16"
   version="1.1"
   id="svg1"
   sodipodi:docname="contacts-dark.svg"
   inkscape:version="1.4.4 (dcaf3e7d9e, 2026-05-05)"
   xmlns:inkscape="http://www.inkscape.org/namespaces/inkscape"
   xmlns:sodipodi="http://sodipodi.sourceforge.net/DTD/sodipodi-0.dtd"
   xmlns="http://www.w3.org/2000/svg"
   xmlns:svg="http://www.w3.org/2000/svg">
  <sodipodi:namedview
     id="namedview1"
     pagecolor="#ffffff"
     bordercolor="#999999"
     borderopacity="1"
     inkscape:showpageshadow="2"
     inkscape:pageopacity="0"
     inkscape:pagecheckerboard="0"
     inkscape:deskcolor="#d1d1d1"
     inkscape:zoom="52.4375"
     inkscape:cx="8"
     inkscape:cy="8"
     inkscape:window-width="1920"
     inkscape:window-height="1040"
     inkscape:window-x="0"
     inkscape:window-y="0"
     inkscape:window-maximized="1"
     inkscape:current-layer="svg1" />
  <defs
     id="defs1">
    <style
       id="current-color-scheme"
       type="text/css">.ColorScheme-Text { color:#282828; } .ColorScheme-Highlight { color:#458588; }</style>
  </defs>
  <path
     class="ColorScheme-Text"
     d="m8 1c-1.381 0-2.5 1.119-2.5 2.5s1.119 2.5 2.5 2.5 2.5-1.119 2.5-2.5-1.119-2.5-2.5-2.5zm-0.4453 6c-1.717 0.0011-3.109 1.394-3.109 3.111v3.111c5.517e-4 0.9812 0.7958 1.776 1.777 1.777h2.223c1.717-0.0011 3.109-1.394 3.109-3.111v-1.777c0-1.717-1.392-3.11-3.109-3.111zm3.635 0.05859c0.8368 0.7543 1.365 1.846 1.365 3.053v1.777c0 1.206-0.5285 2.298-1.365 3.053 1.607-0.2832 2.811-1.54 2.811-3.053v-1.777c0-1.514-1.204-2.77-2.811-3.053zm-7.018 0.7285c-1.356 0.8269-2.169 2.194-2.172 3.656v1.779c4.074e-4 0.9817 0.8957 1.777 2 1.777h0.09766c-0.4058-0.4833-0.652-1.104-0.6523-1.777v-3.111c0-0.8602 0.2689-1.662 0.7266-2.324z"
     fill="currentColor"
     id="path1"
     style="fill:#f2f2f2;fill-opacity:1" />
</svg>
